HIERARCHY
ROOT newVegas:Hips
{
	OFFSET 0.000000 96.479958 0.000000
	CHANNELS 6 Xposition Yposition Zposition Xrotation Yrotation Zrotation
	JOINT newVegas:Pelvis
	{
		OFFSET 0.000000 0.000000 0.000000
		CHANNELS 3 Xrotation Yrotation Zrotation
		JOINT newVegas:LeftUpLeg
		{
			OFFSET 18.735201 -5.666702 -4.541200
			CHANNELS 3 Xrotation Yrotation Zrotation
			JOINT newVegas:LeftLeg
			{
				OFFSET -0.021200 -31.938179 0.493100
				CHANNELS 3 Xrotation Yrotation Zrotation
				JOINT newVegas:LeftFoot
				{
					OFFSET 0.021200 -31.938179 -4.336299
					CHANNELS 3 Xrotation Yrotation Zrotation
					JOINT newVegas:LeftToeBase
					{
						OFFSET 0.943001 -26.722000 15.023500
						CHANNELS 3 Xrotation Yrotation Zrotation
						End Site
						{
							OFFSET 0.000000 30.670183 0.000000
						}
					}
				}
				JOINT newVegas:Left_PantLeg
				{
					OFFSET 0.663870 -9.044666 -1.108900
					CHANNELS 3 Xrotation Yrotation Zrotation
					End Site
					{
						OFFSET 1.415995 20.635357 0.000000
					}
				}
			}
		}
		JOINT newVegas:RightUpLeg
		{
			OFFSET -18.735201 -5.666702 -4.541200
			CHANNELS 3 Xrotation Yrotation Zrotation
			JOINT newVegas:RightLeg
			{
				OFFSET 0.018946 -31.938133 0.493100
				CHANNELS 3 Xrotation Yrotation Zrotation
				JOINT newVegas:RightFoot
				{
					OFFSET -0.018946 -31.938126 -4.336299
					CHANNELS 3 Xrotation Yrotation Zrotation
					JOINT newVegas:RightToeBase
					{
						OFFSET -0.943001 -26.722004 15.023500
						CHANNELS 3 Xrotation Yrotation Zrotation
						End Site
						{
							OFFSET 0.000000 30.670187 0.000000
						}
					}
				}
				JOINT newVegas:Right_PantLeg
				{
					OFFSET -0.661674 -9.044716 -1.108900
					CHANNELS 3 Xrotation Yrotation Zrotation
					End Site
					{
						OFFSET -1.415958 20.635269 0.000000
					}
				}
			}
		}
	}
	JOINT newVegas:Spine
	{
		OFFSET 0.000000 10.199997 -0.299500
		CHANNELS 3 Xrotation Yrotation Zrotation
		JOINT newVegas:Spine1
		{
			OFFSET 0.000000 11.900002 -1.516600
			CHANNELS 3 Xrotation Yrotation Zrotation
			JOINT newVegas:Spine2
			{
				OFFSET 0.000000 13.600006 -2.842500
				CHANNELS 3 Xrotation Yrotation Zrotation
				JOINT newVegas:Neck
				{
					OFFSET 0.000000 9.624100 -2.890100
					CHANNELS 3 Xrotation Yrotation Zrotation
					JOINT newVegas:Head
					{
						OFFSET 0.000000 14.068802 -1.351900
						CHANNELS 3 Xrotation Yrotation Zrotation
						JOINT newVegas:Hair_Back
						{
							OFFSET 0.000000 3.231903 -17.524799
							CHANNELS 3 Xrotation Yrotation Zrotation
							End Site
							{
								OFFSET 0.000000 19.849884 0.000000
							}
						}
						JOINT newVegas:Hair_Front
						{
							OFFSET 0.000000 31.260406 4.573800
							CHANNELS 3 Xrotation Yrotation Zrotation
							JOINT newVegas:Hair_Front1
							{
								OFFSET 0.000000 2.284103 11.993300
								CHANNELS 3 Xrotation Yrotation Zrotation
								JOINT newVegas:Hair_Front2
								{
									OFFSET 0.000000 2.284103 11.993300
									CHANNELS 3 Xrotation Yrotation Zrotation
									End Site
									{
										OFFSET 0.000000 12.208862 0.000000
									}
								}
							}
						}
						JOINT newVegas:Jowel
						{
							OFFSET 0.000000 -7.458206 6.864100
							CHANNELS 3 Xrotation Yrotation Zrotation
							End Site
							{
								OFFSET 0.000000 19.849884 0.000000
							}
						}
					}
				}
				JOINT newVegas:LeftShoulder
				{
					OFFSET 15.263000 10.923401 -0.547700
					CHANNELS 3 Xrotation Yrotation Zrotation
					JOINT newVegas:LeftArm
					{
						OFFSET 25.438599 -2.830597 -13.032500
						CHANNELS 3 Xrotation Yrotation Zrotation
						JOINT newVegas:LeftForeArm
						{
							OFFSET 29.960503 0.000000 0.000000
							CHANNELS 3 Xrotation Yrotation Zrotation
							JOINT newVegas:LeftHand
							{
								OFFSET 27.849251 0.000000 0.000000
								CHANNELS 3 Xrotation Yrotation Zrotation
								JOINT newVegas:LeftHandThumb1
								{
									OFFSET 4.487587 -3.305161 6.305391
									CHANNELS 3 Xrotation Yrotation Zrotation
									JOINT newVegas:LeftHandThumb2
									{
										OFFSET 5.480453 -3.164139 3.164143
										CHANNELS 3 Xrotation Yrotation Zrotation
										JOINT newVegas:LeftHandThumb3
										{
											OFFSET 5.159721 -2.978973 2.978967
											CHANNELS 3 Xrotation Yrotation Zrotation
											End Site
											{
												OFFSET 2.494507 5.926697 1.738678
											}
										}
									}
								}
								JOINT newVegas:LeftHandIndex1
								{
									OFFSET 18.578728 -0.527832 5.208049
									CHANNELS 3 Xrotation Yrotation Zrotation
									JOINT newVegas:LeftHandIndex2
									{
										OFFSET 3.192009 0.000000 0.000000
										CHANNELS 3 Xrotation Yrotation Zrotation
										JOINT newVegas:LeftHandIndex3
										{
											OFFSET 3.835129 0.000000 0.000000
											CHANNELS 3 Xrotation Yrotation Zrotation
											End Site
											{
												OFFSET -0.034599 3.816971 0.371180
											}
										}
									}
								}
								JOINT newVegas:LeftHandMiddle1
								{
									OFFSET 18.476105 0.000000 0.000000
									CHANNELS 3 Xrotation Yrotation Zrotation
									JOINT newVegas:LeftHandMiddle2
									{
										OFFSET 3.324875 0.000000 0.000000
										CHANNELS 3 Xrotation Yrotation Zrotation
										JOINT newVegas:LeftHandMiddle3
										{
											OFFSET 4.596550 0.000000 0.000000
											CHANNELS 3 Xrotation Yrotation Zrotation
											End Site
											{
												OFFSET 0.057701 4.578827 0.399218
											}
										}
									}
								}
								JOINT newVegas:LeftHandRing1
								{
									OFFSET 17.732719 0.121887 -4.201567
									CHANNELS 3 Xrotation Yrotation Zrotation
									JOINT newVegas:LeftHandRing2
									{
										OFFSET 2.733170 0.000000 0.000000
										CHANNELS 3 Xrotation Yrotation Zrotation
										JOINT newVegas:LeftHandRing3
										{
											OFFSET 3.178268 0.000000 0.000000
											CHANNELS 3 Xrotation Yrotation Zrotation
											End Site
											{
												OFFSET 0.119102 3.170624 0.185394
											}
										}
									}
								}
								JOINT newVegas:LeftHandPinky1
								{
									OFFSET 15.989624 -0.606689 -7.535461
									CHANNELS 3 Xrotation Yrotation Zrotation
									JOINT newVegas:LeftHandPinky2
									{
										OFFSET 2.538986 0.000000 0.000000
										CHANNELS 3 Xrotation Yrotation Zrotation
										JOINT newVegas:LeftHandPinky3
										{
											OFFSET 2.593102 0.000000 0.000000
											CHANNELS 3 Xrotation Yrotation Zrotation
											End Site
											{
												OFFSET -0.150902 2.584198 0.152708
											}
										}
									}
								}
							}
							JOINT newVegas:Left_Sleeve
							{
								OFFSET 0.267448 -0.649796 0.577675
								CHANNELS 3 Xrotation Yrotation Zrotation
								End Site
								{
									OFFSET 0.000000 15.991241 0.000000
								}
							}
							JOINT newVegas:Left_CapeC
							{
								OFFSET 15.715958 -8.608795 -6.935905
								CHANNELS 3 Xrotation Yrotation Zrotation
								JOINT newVegas:Left_CapeC1
								{
									OFFSET 0.000000 -8.688499 0.000000
									CHANNELS 3 Xrotation Yrotation Zrotation
									End Site
									{
										OFFSET 0.000000 8.688499 0.000000
									}
								}
							}
						}
						JOINT newVegas:Left_CapeB
						{
							OFFSET 26.118385 -8.608795 -7.079235
							CHANNELS 3 Xrotation Yrotation Zrotation
							JOINT newVegas:Left_CapeB1
							{
								OFFSET 0.000000 -8.688499 0.000000
								CHANNELS 3 Xrotation Yrotation Zrotation
								End Site
								{
									OFFSET 0.000000 8.688499 0.000000
								}
							}
						}
						JOINT newVegas:Left_CapeA
						{
							OFFSET 5.115639 -8.608795 -10.395809
							CHANNELS 3 Xrotation Yrotation Zrotation
							JOINT newVegas:Left_CapeA1
							{
								OFFSET 0.000000 -8.688499 0.000000
								CHANNELS 3 Xrotation Yrotation Zrotation
								End Site
								{
									OFFSET 0.000000 8.688499 0.000000
								}
							}
						}
					}
				}
				JOINT newVegas:RightShoulder
				{
					OFFSET -15.263000 10.923401 -0.547700
					CHANNELS 3 Xrotation Yrotation Zrotation
					JOINT newVegas:RightArm
					{
						OFFSET -25.438599 -2.830597 -13.032500
						CHANNELS 3 Xrotation Yrotation Zrotation
						JOINT newVegas:RightForeArm
						{
							OFFSET -29.960503 0.000000 0.000000
							CHANNELS 3 Xrotation Yrotation Zrotation
							JOINT newVegas:RightHand
							{
								OFFSET -27.849251 0.000000 0.000000
								CHANNELS 3 Xrotation Yrotation Zrotation
								JOINT newVegas:RightHandThumb1
								{
									OFFSET -4.487587 -3.305161 6.305391
									CHANNELS 3 Xrotation Yrotation Zrotation
									JOINT newVegas:RightHandThumb2
									{
										OFFSET -5.480453 -3.164139 3.164143
										CHANNELS 3 Xrotation Yrotation Zrotation
										JOINT newVegas:RightHandThumb3
										{
											OFFSET -5.159721 -2.978973 2.978967
											CHANNELS 3 Xrotation Yrotation Zrotation
											End Site
											{
												OFFSET -2.494507 5.926697 1.738678
											}
										}
									}
								}
								JOINT newVegas:RightHandIndex1
								{
									OFFSET -18.578728 -0.527832 5.208049
									CHANNELS 3 Xrotation Yrotation Zrotation
									JOINT newVegas:RightHandIndex2
									{
										OFFSET -3.192009 0.000000 0.000000
										CHANNELS 3 Xrotation Yrotation Zrotation
										JOINT newVegas:RightHandIndex3
										{
											OFFSET -3.835129 0.000000 0.000000
											CHANNELS 3 Xrotation Yrotation Zrotation
											End Site
											{
												OFFSET 0.034599 3.816971 0.371180
											}
										}
									}
								}
								JOINT newVegas:RightHandMiddle1
								{
									OFFSET -18.476105 0.000000 0.000000
									CHANNELS 3 Xrotation Yrotation Zrotation
									JOINT newVegas:RightHandMiddle2
									{
										OFFSET -3.324875 0.000000 0.000000
										CHANNELS 3 Xrotation Yrotation Zrotation
										JOINT newVegas:RightHandMiddle3
										{
											OFFSET -4.596550 0.000000 0.000000
											CHANNELS 3 Xrotation Yrotation Zrotation
											End Site
											{
												OFFSET -0.057701 4.578827 0.399218
											}
										}
									}
								}
								JOINT newVegas:RightHandRing1
								{
									OFFSET -17.732719 0.121887 -4.201567
									CHANNELS 3 Xrotation Yrotation Zrotation
									JOINT newVegas:RightHandRing2
									{
										OFFSET -2.733170 0.000000 0.000000
										CHANNELS 3 Xrotation Yrotation Zrotation
										JOINT newVegas:RightHandRing3
										{
											OFFSET -3.178268 0.000000 0.000000
											CHANNELS 3 Xrotation Yrotation Zrotation
											End Site
											{
												OFFSET -0.119102 3.170624 0.185394
											}
										}
									}
								}
								JOINT newVegas:RightHandPinky1
								{
									OFFSET -15.989624 -0.606689 -7.535461
									CHANNELS 3 Xrotation Yrotation Zrotation
									JOINT newVegas:RightHandPinky2
									{
										OFFSET -2.538986 0.000000 0.000000
										CHANNELS 3 Xrotation Yrotation Zrotation
										JOINT newVegas:RightHandPinky3
										{
											OFFSET -2.593102 0.000000 0.000000
											CHANNELS 3 Xrotation Yrotation Zrotation
											End Site
											{
												OFFSET 0.150902 2.584198 0.152708
											}
										}
									}
								}
							}
							JOINT newVegas:Right_CapeC
							{
								OFFSET -15.715958 -8.608795 -6.935905
								CHANNELS 3 Xrotation Yrotation Zrotation
								JOINT newVegas:Right_CapeC1
								{
									OFFSET 0.000000 -8.688499 0.000000
									CHANNELS 3 Xrotation Yrotation Zrotation
									End Site
									{
										OFFSET 0.000000 8.688499 0.000000
									}
								}
							}
							JOINT newVegas:Right_Sleeve
							{
								OFFSET -0.267448 -0.649994 0.577675
								CHANNELS 3 Xrotation Yrotation Zrotation
								End Site
								{
									OFFSET 0.000000 15.991302 0.000000
								}
							}
						}
						JOINT newVegas:Right_CapeA
						{
							OFFSET -5.115540 -8.608795 -10.395824
							CHANNELS 3 Xrotation Yrotation Zrotation
							JOINT newVegas:Right_CapeA1
							{
								OFFSET 0.000000 -8.688499 0.000000
								CHANNELS 3 Xrotation Yrotation Zrotation
								End Site
								{
									OFFSET 0.000000 8.688499 0.000000
								}
							}
						}
						JOINT newVegas:Right_CapeB
						{
							OFFSET -26.118187 -8.608795 -7.079266
							CHANNELS 3 Xrotation Yrotation Zrotation
							JOINT newVegas:Right_CapeB1
							{
								OFFSET 0.000000 -8.688499 0.000000
								CHANNELS 3 Xrotation Yrotation Zrotation
								End Site
								{
									OFFSET 0.000000 8.688499 0.000000
								}
							}
						}
					}
				}
				JOINT newVegas:Left_Collar
				{
					OFFSET 18.625099 8.655502 8.828100
					CHANNELS 3 Xrotation Yrotation Zrotation
					JOINT newVegas:Left_Collar1
					{
						OFFSET 14.783401 10.540405 -1.259500
						CHANNELS 3 Xrotation Yrotation Zrotation
						End Site
						{
							OFFSET 0.000000 18.199875 0.000000
						}
					}
				}
				JOINT newVegas:Collar_Back
				{
					OFFSET 0.000000 15.630707 -20.132601
					CHANNELS 3 Xrotation Yrotation Zrotation
					End Site
					{
						OFFSET 0.000000 22.523010 0.000000
					}
				}
				JOINT newVegas:Left_Peck
				{
					OFFSET 17.239599 -5.132599 25.482599
					CHANNELS 3 Xrotation Yrotation Zrotation
					End Site
					{
						OFFSET 0.000000 22.523010 0.000000
					}
				}
				JOINT newVegas:Right_Peck
				{
					OFFSET -17.239599 -5.132202 25.482599
					CHANNELS 3 Xrotation Yrotation Zrotation
					End Site
					{
						OFFSET 0.000000 22.523010 0.000000
					}
				}
				JOINT newVegas:Right_Collar
				{
					OFFSET -18.625099 8.655792 8.828100
					CHANNELS 3 Xrotation Yrotation Zrotation
					JOINT newVegas:Right_Collar1
					{
						OFFSET -14.783401 10.539993 -1.259500
						CHANNELS 3 Xrotation Yrotation Zrotation
						End Site
						{
							OFFSET 0.000000 18.199631 0.000000
						}
					}
				}
			}
		}
		JOINT newVegas:Belly
		{
			OFFSET 0.000000 -6.540398 9.014299
			CHANNELS 3 Xrotation Yrotation Zrotation
			End Site
			{
				OFFSET 0.000000 11.566666 0.000000
			}
		}
	}
	JOINT newVegas:ElvisFacialAnim_Joint
	{
		OFFSET 1.000000 -95.330101 -8.825800
		CHANNELS 3 Xrotation Yrotation Zrotation
		End Site
		{
			OFFSET 0.000000 35.315800 0.000000
		}
	}
}
MOTION
Frames: 4
Frame Time: 0.033333
-0.950158 85.262383 3.628007 11.731435 -18.859679 0.317269 -0.000000 0.000000 0.000000 -49.883467 1.923198 30.746800 53.206030 4.479406 1.216925 -8.319275 3.899411 -25.737871 -0.000000 0.000000 -0.000000 0.000001 -0.000000 -0.000000 -41.225605 -6.723546 -21.584074 52.022945 -6.683440 -1.044212 -14.450966 -4.596637 22.471287 -0.000000 0.000002 -0.000000 0.000000 0.000000 0.000000 2.433205 -0.589071 1.885200 7.456961 -1.168755 1.469751 7.467524 -1.053328 1.498842 -2.322491 1.297661 -0.995113 -2.322500 1.297671 -0.995115 -0.000001 -0.000001 0.000000 -2.322497 1.297673 -0.995116 -2.322494 1.297676 -0.995117 0.000000 -0.000002 0.000001 -0.000001 -0.000001 -0.000000 0.593286 4.744782 -11.385175 -5.519182 -18.274238 -52.478007 -27.554450 -86.109486 -27.458173 20.574389 0.445384 22.562294 -1.000754 -12.289120 2.890895 0.347311 23.362403 5.978514 -0.000001 0.000000 -0.000004 0.821536 10.221914 -29.803544 0.504378 3.565628 -27.163628 0.000000 -0.000002 -0.000002 -0.011449 8.637633 -30.447617 -0.387400 3.696191 -26.534037 0.000000 0.000000 0.000002 0.463732 9.509228 -30.323021 -0.005088 3.420955 -25.162178 0.000001 -0.000000 -0.000002 0.356757 9.648656 -27.493818 0.263347 3.596644 -26.782184 -0.000000 -0.000003 -0.000001 0.000001 -0.000001 -0.000002 0.000001 -0.000001 -0.000002 0.000000 -0.000001 -0.000002 0.000001 0.000000 -0.000001 0.000001 0.000000 -0.000001 0.000001 0.000000 -0.000001 -0.000000 0.000001 -0.000002 1.724932 4.416438 10.300652 -15.272837 14.873157 61.474298 57.121077 92.095170 -56.693261 24.685081 7.314393 4.981746 -1.000828 12.292374 -2.890357 0.366690 -23.410381 -5.950649 -0.000004 -0.000002 -0.000001 0.827413 -10.241690 29.762601 0.501000 -3.557182 27.094257 0.000001 0.000000 -0.000002 -0.000579 -8.661877 30.434736 -0.387677 -3.694159 26.518795 0.000001 0.000002 -0.000002 0.488946 -9.567381 30.346131 -0.005879 -3.419389 25.162834 0.000002 -0.000003 -0.000002 0.366328 -9.662287 27.491838 0.262869 -3.595087 26.770059 -0.000001 0.000005 0.000002 -0.000000 0.000000 -0.000000 -0.000000 -0.000000 0.000000 -0.000000 -0.000000 -0.000000 -0.000000 0.000000 -0.000000 -0.000000 0.000000 -0.000000 -0.000000 0.000000 -0.000000 -0.000000 -0.000000 -0.000000 -0.000000 0.000001 -0.000001 -0.000000 0.000001 -0.000001 -0.000000 0.000001 -0.000001 -0.000000 0.000001 -0.000001 -0.000000 0.000001 -0.000001 -0.000000 0.000001 -0.000001 -0.000000 0.000001 -0.000001 -0.000000 0.000000 -0.000001 -0.000000 0.000000 0.000000 
-0.891276 85.272141 3.616098 11.672253 -18.672327 0.342382 0.000000 0.000000 -0.000000 -49.974872 2.031883 30.688173 53.157730 4.264066 1.108647 -8.253042 3.860567 -25.499688 0.000000 -0.000000 0.000000 0.000001 0.000001 0.000003 -41.095558 -6.626356 -21.637445 52.037630 -6.910857 -1.107381 -14.447426 -4.625086 22.658620 -0.000000 0.000000 0.000000 0.000001 0.000000 0.000000 2.811446 -0.526155 1.998333 7.347504 -1.159233 1.398945 7.357867 -1.047934 1.428156 -2.125440 1.273208 -0.948482 -2.125440 1.273207 -0.948477 0.000002 0.000000 -0.000001 -2.125443 1.273210 -0.948482 -2.125440 1.273216 -0.948485 -0.000001 0.000002 -0.000000 0.000002 0.000000 -0.000001 0.674902 3.102706 -11.605947 -5.525967 -15.798043 -52.509285 -12.536364 -87.161431 -11.910609 17.810546 -0.590763 17.895958 -1.000713 -12.289019 2.890925 0.326094 23.320812 6.029540 0.000004 -0.000001 -0.000001 0.798850 10.098407 -30.054096 0.504067 3.564900 -27.157520 0.000001 -0.000000 -0.000002 -0.098067 8.489869 -31.096711 -0.385804 3.708631 -26.626427 -0.000000 0.000001 -0.000000 0.375919 9.268940 -30.428619 0.000999 3.446800 -25.363035 0.000001 0.000005 -0.000002 0.367639 9.675028 -27.679101 0.268999 3.614231 -26.918790 0.000000 -0.000005 -0.000001 -0.000000 -0.000001 0.000001 -0.000000 -0.000001 0.000001 0.000000 -0.000001 0.000001 -0.000003 -0.000001 -0.000000 -0.000002 0.000000 -0.000000 -0.000003 -0.000001 -0.000000 -0.000004 0.000000 -0.000000 1.900235 4.201654 10.001400 -15.409935 13.568362 61.467488 5.915669 90.899655 -3.893452 24.246907 8.425394 4.164503 -1.000802 12.292309 -2.890377 0.469449 -23.708959 -5.885524 0.000000 -0.000001 0.000001 0.798551 -10.122544 29.395164 0.473727 -3.487670 26.526100 0.000001 0.000002 -0.000000 0.042341 -8.754930 30.594306 -0.388186 -3.690919 26.496387 0.000001 0.000002 -0.000000 0.587367 -9.725967 30.366249 -0.005454 -3.421324 25.178169 0.000002 0.000002 0.000001 0.411209 -9.730261 27.544106 0.261177 -3.589736 26.728774 -0.000003 0.000001 0.000002 -0.000000 0.000001 -0.000000 -0.000000 0.000000 -0.000000 -0.000000 0.000001 -0.000000 -0.000000 0.000000 0.000001 0.000000 0.000000 0.000001 -0.000000 0.000000 0.000001 0.000000 0.000000 0.000002 0.000001 -0.000001 -0.000000 0.000001 -0.000001 -0.000000 0.000001 -0.000001 -0.000000 0.000001 -0.000001 -0.000000 0.000001 -0.000001 -0.000000 0.000001 -0.000001 -0.000000 0.000001 -0.000001 -0.000000 -0.000000 0.000001 -0.000000 0.000000 0.000000 -0.000000 
-0.786963 85.290779 3.604007 11.609199 -18.466499 0.453074 0.000000 -0.000001 0.000000 -50.054003 2.283470 30.613495 53.071769 4.005153 0.868510 -8.215983 3.813857 -25.126253 0.000000 0.000001 -0.000000 0.000000 0.000001 0.000002 -40.998272 -6.460617 -21.788611 52.061853 -7.140261 -1.218109 -14.410511 -4.659577 22.913611 0.000000 0.000001 0.000000 0.000000 -0.000003 -0.000000 3.287275 -0.543354 2.219464 7.223022 -1.178050 1.279904 7.233105 -1.072354 1.310501 -1.863104 1.265067 -0.888737 -1.863114 1.265062 -0.888735 0.000000 0.000001 -0.000001 -1.863038 1.265077 -0.888740 -1.863175 1.265043 -0.888731 -0.000002 0.000001 0.000000 0.000000 0.000001 0.000000 0.812480 1.289660 -12.111756 -5.744154 -12.841007 -51.931608 9.119031 -87.693291 11.000137 15.044123 -2.212029 11.630531 -1.000640 -12.288871 2.890967 0.747600 24.349766 5.802802 -0.000000 -0.000002 -0.000005 1.031077 10.919466 -30.773971 0.499802 3.554192 -27.069925 0.000001 -0.000001 0.000000 -0.040299 8.670732 -31.862522 -0.385230 3.713093 -26.659579 0.000001 0.000001 -0.000001 0.568293 9.800472 -31.265604 0.006110 3.468297 -25.530923 -0.000000 0.000003 0.000001 0.489860 9.860915 -27.950336 0.270538 3.619098 -26.956494 -0.000000 -0.000003 -0.000000 0.000002 -0.000001 -0.000001 0.000002 -0.000001 -0.000001 0.000001 -0.000001 -0.000001 0.000002 -0.000001 0.000001 0.000003 -0.000001 0.000001 0.000002 -0.000001 0.000001 0.000002 -0.000000 0.000001 2.069390 3.934638 9.743903 -15.618063 12.324024 61.377726 -71.206457 92.382591 75.169852 23.740879 9.615298 3.383548 -1.000793 12.292286 -2.890349 0.625822 -24.161948 -5.784940 0.000002 -0.000002 -0.000001 0.587070 -8.956690 26.419334 0.483649 -3.513153 26.734219 0.000001 -0.000000 0.000000 -0.105357 -8.201723 27.727821 -0.382299 -3.736024 26.830190 0.000001 -0.000001 0.000000 0.889528 -10.173894 30.033223 -0.002224 -3.434846 25.282891 0.000000 0.000002 0.000001 0.502144 -9.874183 27.771059 0.257594 -3.578485 26.641599 0.000001 0.000002 0.000000 -0.000001 0.000000 -0.000001 -0.000002 0.000000 -0.000001 -0.000001 0.000000 -0.000000 -0.000000 0.000000 0.000001 -0.000000 0.000000 0.000001 -0.000000 0.000000 0.000001 -0.000000 -0.000000 0.000001 0.000002 0.000001 -0.000001 0.000002 0.000001 -0.000001 0.000002 0.000001 -0.000001 0.000002 0.000001 -0.000001 0.000002 0.000001 -0.000001 0.000002 0.000001 -0.000001 0.000002 0.000001 -0.000001 -0.000001 -0.000001 -0.000000 0.000000 -0.000001 0.000000 
-0.658906 85.283669 3.573501 11.658126 -18.401052 0.712536 -0.000001 -0.000001 0.000000 -50.152013 2.638972 30.539357 53.005649 3.831401 0.505998 -8.261075 3.783384 -24.647383 0.000000 0.000001 0.000000 0.000000 -0.000000 0.000003 -41.184384 -6.176688 -22.022917 52.167814 -7.239962 -1.383339 -14.313776 -4.683973 23.189800 0.000000 0.000000 -0.000000 0.000001 -0.000003 -0.000003 3.776581 -0.742765 2.517922 7.100064 -1.253043 1.106788 7.109647 -1.153938 1.141186 -1.539399 1.314488 -0.840929 -1.539372 1.314491 -0.840927 -0.000001 0.000000 -0.000001 -1.539307 1.314510 -0.840932 -1.539450 1.314469 -0.840920 -0.000002 -0.000001 0.000000 -0.000001 0.000000 0.000000 0.931166 -0.705285 -12.736893 -5.911480 -9.199487 -50.924637 10.863309 -88.295706 14.994058 12.349388 -3.220544 5.429703 -1.000670 -12.288900 2.890947 2.597306 28.756719 4.976199 0.000002 -0.000003 -0.000003 1.477222 12.383442 -31.726136 0.525855 3.618951 -27.600337 0.000000 -0.000002 -0.000000 0.240090 9.322051 -33.001661 -0.371424 3.812283 -27.391811 0.000000 0.000001 0.000000 1.017955 10.915468 -32.560079 0.042528 3.611339 -26.639713 0.000000 -0.000001 0.000000 0.750479 10.233987 -28.257140 0.271112 3.620853 -26.970226 -0.000000 -0.000002 0.000001 -0.000000 0.000000 -0.000003 -0.000000 0.000000 -0.000003 -0.000001 -0.000001 -0.000003 0.000001 0.000002 -0.000000 0.000002 0.000003 0.000002 0.000001 0.000002 -0.000000 0.000000 0.000003 -0.000000 2.231350 3.608846 9.501138 -15.983903 11.539131 61.214553 -78.161427 94.926912 84.347126 23.238853 10.718118 2.562771 -1.000789 12.292315 -2.890373 1.010617 -25.270146 -5.529785 0.000004 -0.000003 0.000005 0.514657 -6.264811 18.319588 0.514513 -3.590919 27.371061 0.000002 0.000001 0.000000 -0.027980 -7.578948 20.018619 -0.371963 -3.810123 27.377980 -0.000003 0.000003 0.000004 1.272220 -10.753300 29.285174 0.022049 -3.533235 26.042910 0.000001 0.000001 0.000000 0.599905 -10.054915 28.541375 0.276186 -3.636449 27.091633 -0.000001 0.000002 0.000000 -0.000000 0.000001 -0.000000 -0.000000 0.000001 0.000000 -0.000000 0.000000 -0.000000 -0.000001 0.000002 -0.000000 -0.000000 0.000002 0.000001 -0.000001 0.000002 -0.000000 -0.000000 0.000002 0.000001 -0.000000 -0.000001 0.000001 -0.000000 -0.000001 0.000001 -0.000000 -0.000001 0.000001 -0.000000 -0.000001 0.000001 -0.000000 -0.000001 0.000001 -0.000000 -0.000001 0.000001 -0.000000 -0.000001 0.000001 -0.000001 -0.000002 0.000000 -0.000001 -0.000001 0.000000 
